# xmcd
#
# Track frame offsets:
#	150
#	18950
#	42352
#	61172
#
# Disc length: 1095 seconds
#
# Revision: 0
# Processed by: cddbd v1.5.2PL0 Copyright (c) Steve Scherf et al.
# Submitted via: audiograbber 1.83.01
#
DISCID=28044504
DTITLE=Vixen - How much love (Maxi)
DYEAR=1990
DGENRE=Rock
TTITLE0=How much love (Radio Edit)
TTITLE1=Wrecking Ball
TTITLE2=Bad Reputation
TTITLE3=How much love (LP Version)
EXTD=
EXTT0=
EXTT1=
EXTT2=
EXTT3=
PLAYORDER=
